#!OML:ASF X:\für Bonn\!DataBase\2005_08_10_Bjorn_Final\c3d\bjorn.ASF
:FULLY-SPECIFIED
:DEGREES
64
root 2.93019 18.8098 3.15165 -168.96 -9.64148 173.67
lowerback 0.749735 -2.3098 5.18646
upperback 9.26652 -4.28152 0.543365
thorax 9.07972 -2.08053 -2.66281
lowerneck -7.39387 2.98635 -1.53796
upperneck 0.384245 3.97022 -10.3622
head 1.61443 1.5468 -2.93916
rclavicle -1.27222e-014 -7.15625e-015
rhumerus -27.6873 -25.1088 -79.3059
rradius 24.2932
rwrist 10.498
rhand -12.9022 16.427
rfingers 7.12502
rthumb 13.1875 -13.1359
lclavicle -1.27222e-014 -7.15625e-015
lhumerus -33.0127 -27.5339 95.4224
lradius 47.7467
lwrist -9.6544
lhand -36.5229 -11.7033
lfingers 7.12502
lthumb -9.6143 18.0573
rfemur -35.0014 -4.35951 13.0454
rtibia 45.0416
rfoot -16.9787 12.5187
rtoes -13.3003
lfemur -11.3153 5.36808 -24.6769
ltibia 51.9581
lfoot -23.8241 -1.89713
ltoes -14.0158
65
root 2.92218 18.8385 3.09775 -169.036 -9.42283 173.673
lowerback 0.360306 -2.34767 5.31263
upperback 9.02281 -4.31031 0.631059
thorax 9.03346 -2.07346 -2.65372
lowerneck -7.29617 3.05415 -1.73183
upperneck 0.679184 4.09846 -10.4167
head 1.69597 1.59624 -2.91929
rclavicle 4.69132e-014 1.66979e-014
rhumerus -27.8355 -24.7816 -79.2422
rradius 24.5043
rwrist 10.0911
rhand -12.9891 16.4742
rfingers 7.12502
rthumb 13.1037 -13.0941
lclavicle 4.69132e-014 1.66979e-014
lhumerus -33.7325 -27.6576 95.9295
lradius 46.9786
lwrist -9.3797
lhand -36.5572 -11.647
lfingers 7.12502
lthumb -9.64743 18.1121
rfemur -34.4835 -4.16579 13.0182
rtibia 44.5392
rfoot -16.9558 12.4903
rtoes -13.2066
lfemur -11.1636 5.66303 -24.5793
ltibia 54.5755
lfoot -23.2862 -1.06175
ltoes -13.4333
66
root 2.91499 18.8692 3.04404 -169.115 -9.19625 173.67
lowerback -0.0190252 -2.40357 5.39616
upperback 8.7616 -4.36175 0.735385
thorax 8.96386 -2.08273 -2.60396
lowerneck -7.23697 3.14644 -1.97408
upperneck 1.00931 4.26625 -10.4763
head 1.79662 1.65998 -2.89088
rclavicle -1.27222e-014 3.18055e-014
rhumerus -27.9193 -24.361 -79.1925
rradius 24.6755
rwrist 9.67493
rhand -13.0665 16.5088
rfingers 7.12502
rthumb 13.0291 -13.0643
lclavicle -1.27222e-014 3.18055e-014
lhumerus -34.463 -27.6129 96.4322
lradius 46.2974
lwrist -9.08769
lhand -36.522 -11.658
lfingers 7.12502
lthumb -9.61343 18.1027
rfemur -33.9413 -3.91982 12.9801
rtibia 44.0014
rfoot -16.9144 12.4319
rtoes -13.0651
lfemur -11.1121 5.9938 -24.4829
ltibia 57.4407
lfoot -22.7286 0.130373
ltoes -14.2126
67
root 2.90847 18.9007 2.99097 -169.239 -8.95064 173.694
lowerback -0.395004 -2.45043 5.49209
upperback 8.52796 -4.40956 0.834172
thorax 8.92306 -2.0903 -2.56841
lowerneck -7.22226 3.24066 -2.20778
upperneck 1.36902 4.44151 -10.5196
head 1.91513 1.72447 -2.85811
rclavicle -3.49861e-014 -5.56597e-015
rhumerus -27.9105 -24.0156 -79.1879
rradius 24.8295
rwrist 9.35513
rhand -13.1047 16.4884
rfingers 7.12502
rthumb 12.9923 -13.087
lclavicle -3.49861e-014 -5.56597e-015
lhumerus -35.1423 -27.5531 96.8717
lradius 45.6688
lwrist -8.80455
lhand -36.5448 -11.741
lfingers 7.12502
lthumb -9.63551 18.0186
rfemur -33.348 -3.66765 12.9732
rtibia 43.4423
rfoot -16.9053 12.3852
rtoes -13.154
lfemur -11.0665 6.38224 -24.3256
ltibia 60.4966
lfoot -22.261 1.37737
ltoes -16.0791
68
root 2.90268 18.93 2.93957 -169.37 -8.69304 173.711
lowerback -0.792002 -2.49767 5.54265
upperback 8.31843 -4.46583 0.95023
thorax 8.92545 -2.10649 -2.49336
lowerneck -7.27319 3.35101 -2.46855
upperneck 1.75212 4.64427 -10.5875
head 2.0548 1.79551 -2.82751
rclavicle -2.38542e-015 -1.27222e-014
rhumerus -27.8225 -23.5127 -79.2336
rradius 25.0539
rwrist 8.9386
rhand -13.1014 16.3687
rfingers 7.12502
rthumb 12.9955 -13.2066
lclavicle -2.38542e-015 -1.27222e-014
lhumerus -35.7552 -27.3888 97.2865
lradius 45.0715
lwrist -8.73873
lhand -36.757 -11.886
lfingers 7.12502
lthumb -9.84023 17.864
rfemur -32.7522 -3.38231 12.9509
rtibia 42.8791
rfoot -16.8603 12.3322
rtoes -13.0926
lfemur -11.0229 6.76709 -24.1484
ltibia 63.6967
lfoot -21.828 2.50347
ltoes -18.7327
69
root 2.89791 18.9575 2.88999 -169.544 -8.43032 173.75
lowerback -1.18679 -2.49347 5.672
upperback 8.15113 -4.45606 0.972149
thorax 8.96704 -2.07964 -2.55819
lowerneck -7.32186 3.43105 -2.4679
upperneck 2.1351 4.79565 -10.6596
head 2.20106 1.84774 -2.84791
rclavicle -2.38542e-015 -6.99722e-014
rhumerus -27.7859 -23.2072 -79.4086
rradius 25.3719
rwrist 8.53142
rhand -13.0976 16.2465
rfingers 7.12502
rthumb 12.9991 -13.3286
lclavicle -2.38542e-015 -6.99722e-014
lhumerus -36.3355 -27.4426 97.5376
lradius 44.5231
lwrist -8.8398
lhand -37.0696 -12.0275
lfingers 7.12502
lthumb -10.1418 17.708
rfemur -32.1285 -3.09604 12.9616
rtibia 42.3229
rfoot -16.8241 12.2952
rtoes -13.1698
lfemur -10.9695 7.16356 -23.8941
ltibia 66.9949
lfoot -21.2014 3.28566
ltoes -20.8558
70
root 2.89394 18.9824 2.84215 -169.717 -8.15107 173.76
lowerback -1.59723 -2.49283 5.74199
upperback 8.012 -4.45566 0.993156
thorax 9.05218 -2.06158 -2.59431
lowerneck -7.45403 3.52622 -2.46343
upperneck 2.5573 4.97538 -10.7583
head 2.37942 1.90703 -2.87661
rclavicle -1.51076e-014 -2.54444e-014
rhumerus -27.7301 -22.8317 -79.61
rradius 25.7857
rwrist 8.13026
rhand -13.0317 16.124
rfingers 7.12502
rthumb 13.0626 -13.447
lclavicle -1.51076e-014 -2.54444e-014
lhumerus -36.7686 -27.3508 97.6934
lradius 43.9651
lwrist -9.35646
lhand -37.2711 -11.9221
lfingers 7.12502
lthumb -10.3362 17.8038
rfemur -31.5157 -2.77396 12.9375
rtibia 41.7772
rfoot -16.7858 12.215
rtoes -13.1772
lfemur -10.9679 7.54713 -23.6417
ltibia 70.3746
lfoot -20.5036 3.63687
ltoes -22.0935
